# xmcd
#
# Track frame offsets:
#	150
#	12687
#	25625
#	53095
#	79285
#	123438
#	142514
#	157662
#	172031
#	183018
#	195145
#	214399
#	223118
#	237960
#	249585
#	269784
#	291470
#	302682
#	318287
#	327297
#
# Disc length: 4567
#
# Revision: 1
# Processed by: cddbd v1.5.1PL0 Copyright (c) Steve Scherf et al.
# Submitted via: audiograbber 1.81.01
# Normalized: r0:DSETVAR1
#
DISCID=1b11d514
DTITLE=Various Artist - MEGA SOUL [CD2 of 4)
DYEAR=2003
DGENRE=Soul
TTITLE0=THE PLATTERS - ONLY YOU
TTITLE1=PERCY SLEDGE - I'VE BEEN LOVING YOU TOO LONG
TTITLE2=HEATWAVE - MIND BLOWING DECISION
TTITLE3=BILY PAUL - ME AND MRS JONES
TTITLE4=MARVIN GAYE - SEXUAL HEALING
TTITLE5=EDWIN STARR - (YOUR LOVE HAS LIFTED ME) HIGHER AND HIGHER
TTITLE6=THE DELFONICS - LA LA MEANS I LOVE YOU
TTITLE7=SAM and DAVE - YOU SEND ME
TTITLE8=JOE TEX - I'M A MAN
TTITLE9=GLADYS KNIGHT and THE PIPS - COME SEE ABOUT ME
TTITLE10=MOTORCITY ALL STARS - CAN I GET A WHITNESS
TTITLE11=THE DRIFTERS - SATURDAY NIGHT AT THE MOVIES
TTITLE12=DARRYL HALL and JOHN OATES - A LOT OF CHANGES ARE COMIN'
TTITLE13=THE IMPRESSIONS - KEEP ON PUSHIN'
TTITLE14=ROSE ROYSE - WISHING ON A STAR
TTITLE15=TEDDY PENDERGRASS - LOVE T.K.O.
TTITLE16=BROOK BENTON - IT'S JUST A MATTER OF TIME
TTITLE17=HAROLD MELVIN &THE BLUE NOTES - WAKE UP EVERYBODY
TTITLE18=THE DELFONICS - READY OR NOT HERE I COME
TTITLE19=BARRY WHITE - COME ON IN LOVE
EXTD=
EXTT0=
EXTT1=
EXTT2=
EXTT3=
EXTT4=
EXTT5=
EXTT6=
EXTT7=
EXTT8=
EXTT9=
EXTT10=
EXTT11=
EXTT12=
EXTT13=
EXTT14=
EXTT15=
EXTT16=
EXTT17=
EXTT18=
EXTT19=
PLAYORDER=
